<svg width="1148" height="256" viewBox="0 0 1148 256" fill="none" xmlns="http://www.w3.org/2000/svg">
<rect x="400" y="76" width="39" height="141" fill="#F8F2F2"/>
<rect x="50.0131" y="26" width="380" height="200" fill="#272525"/>
<rect x="35" y="60" width="39" height="141" fill="#F8F2F2"/>
<rect x="130" y="51" width="200" height="150" fill="url(#paint0_radial_6_3)"/>
<circle cx="50" cy="126" r="50" fill="#272525"/>
<circle cx="50.0131" cy="126" r="40" fill="#F8F2F2"/>
<circle cx="404.013" cy="112" r="15" fill="url(#paint1_radial_6_3)"/>
<circle cx="374" cy="139" r="15" fill="url(#paint2_radial_6_3)"/>
<path d="M25.0131 8V43.5L103.513 27V8H25.0131Z" fill="#F8F2F2"/>
<path d="M25.0131 244V209L103.013 225.268V244H25.0131Z" fill="#F8F2F2"/>
<path d="M442.013 244V209L407.013 225.268V244H442.013Z" fill="#F8F2F2"/>
<path d="M442.013 8V43L407.013 26.7324V8L442.013 8Z" fill="#F8F2F2"/>
<path d="M121.013 40.5V102H102.513C102.513 63 38.0131 63 11.0131 63V40.5L89.5131 17V0H408.513V17L448.513 40.5V90H342.013V40.5H121.013Z" fill="url(#paint3_radial_6_3)"/>
<path d="M121.126 215.5V154H102.605C102.605 193 38.0309 193 11 193V215.5L89.5897 239V256H408.954V239L449 215.5V166H342.378V215.5H121.126Z" fill="url(#paint4_radial_6_3)"/>
<path d="M10.2853 121H92.0131V131H10.2853C9.90053 127.13 9.90929 124.939 10.2853 121Z" fill="#272525"/>
<circle cx="50.0131" cy="126" r="22.5" fill="url(#paint5_radial_6_3)" stroke="#272525" stroke-width="5"/>
<path d="M221.687 101.9L204.587 111.5L197.687 107.7L187.487 110.8L181.387 125.3L187.787 138.8L206.187 136.6L206.587 133.3L192.387 134.6L194.187 114.5L223.787 114.9V154.4L174.087 160.8L158.987 130.1L164.487 101.9L185.687 86.5L211.687 88.3L221.687 101.9ZM245.686 87.1L261.386 103.1L272.986 86L291.986 104.2L278.186 120.5L300.986 138.4L281.986 160.3L265.586 138.9L244.786 159.8L225.686 140.9L247.786 121L230.986 102.2L245.686 87.1Z" fill="#272525"/>
<path d="M568.51 95.17L546.28 107.65L537.31 102.71L524.05 106.74L516.12 125.59L524.44 143.14L548.36 140.28L548.88 135.99L530.42 137.68L532.76 111.55L571.24 112.07V163.42L506.63 171.74L487 131.83L494.15 95.17L521.71 75.15L555.51 77.49L568.51 95.17ZM632.079 75.67L673.159 165.24L633.899 171.48L630.779 148.47L599.189 147.69L592.039 172.26L554.209 165.5L606.079 78.27L632.079 75.67ZM612.709 109.73L607.379 122.99L627.269 123.51L622.719 110.12L612.709 109.73ZM667.146 162.12L713.556 76.19H740.986L750.086 102.19L766.206 76.06L790.516 75.54L817.166 169.01L782.456 171.87L775.826 148.21L767.896 125.33L743.976 146.65L725.646 122.34L703.676 169.01L667.146 162.12ZM824.479 75.15H888.179L882.849 102.06L851.519 106.87L851.129 113.5L878.819 115.58L877.519 136.25L852.819 138.46L855.029 145.48L885.059 145.74L896.109 171.61H824.479L817.459 109.47L824.479 75.15ZM939.82 75.28L967.12 97.64L972.71 149.77L945.8 171.74H891.98V81.13L939.82 75.28ZM921.75 109.99V138.33L939.3 132.22V118.05L921.75 109.99ZM981.52 75.15H1045.22L1039.89 102.06L1008.56 106.87L1008.17 113.5L1035.86 115.58L1034.56 136.25L1009.86 138.46L1012.07 145.48L1042.1 145.74L1053.15 171.61H981.52L974.5 109.47L981.52 75.15ZM1075.02 75.93L1095.43 96.73L1110.51 74.5L1135.21 98.16L1117.27 119.35L1146.91 142.62L1122.21 171.09L1100.89 143.27L1073.85 170.44L1049.02 145.87L1077.75 120L1055.91 95.56L1075.02 75.93Z" fill="#272525"/>
<path d="M568.51 95.17L570.958 99.5299L575.887 96.7625L572.538 92.208L568.51 95.17ZM546.28 107.65L543.868 112.03L546.303 113.371L548.728 112.01L546.28 107.65ZM537.31 102.71L539.722 98.3303L537.874 97.3127L535.856 97.9261L537.31 102.71ZM524.05 106.74L522.596 101.956L520.351 102.638L519.441 104.801L524.05 106.74ZM516.12 125.59L511.511 123.651L510.644 125.712L511.602 127.732L516.12 125.59ZM524.44 143.14L519.922 145.282L521.463 148.532L525.034 148.105L524.44 143.14ZM548.36 140.28L548.954 145.245L552.851 144.779L553.324 140.882L548.36 140.28ZM548.88 135.99L553.844 136.592L554.589 130.446L548.424 131.011L548.88 135.99ZM530.42 137.68L525.44 137.234L524.905 143.206L530.876 142.659L530.42 137.68ZM532.76 111.55L532.828 106.55L528.193 106.488L527.78 111.104L532.76 111.55ZM571.24 112.07H576.24V107.137L571.308 107.07L571.24 112.07ZM571.24 163.42L571.879 168.379L576.24 167.817V163.42H571.24ZM506.63 171.74L502.143 173.947L503.722 177.156L507.269 176.699L506.63 171.74ZM487 131.83L482.092 130.873L481.77 132.526L482.513 134.037L487 131.83ZM494.15 95.17L491.211 91.1247L489.619 92.2813L489.242 94.2129L494.15 95.17ZM521.71 75.15L522.055 70.1619L520.242 70.0364L518.771 71.1047L521.71 75.15ZM555.51 77.49L559.538 74.528L558.166 72.6619L555.855 72.5019L555.51 77.49ZM566.062 90.8101L543.832 103.29L548.728 112.01L570.958 99.5299L566.062 90.8101ZM548.692 103.27L539.722 98.3303L534.898 107.09L543.868 112.03L548.692 103.27ZM535.856 97.9261L522.596 101.956L525.504 111.524L538.764 107.494L535.856 97.9261ZM519.441 104.801L511.511 123.651L520.729 127.529L528.659 108.679L519.441 104.801ZM511.602 127.732L519.922 145.282L528.958 140.998L520.638 123.448L511.602 127.732ZM525.034 148.105L548.954 145.245L547.766 135.315L523.846 138.175L525.034 148.105ZM553.324 140.882L553.844 136.592L543.916 135.388L543.396 139.678L553.324 140.882ZM548.424 131.011L529.964 132.701L530.876 142.659L549.336 140.969L548.424 131.011ZM535.4 138.126L537.74 111.996L527.78 111.104L525.44 137.234L535.4 138.126ZM532.692 116.55L571.172 117.07L571.308 107.07L532.828 106.55L532.692 116.55ZM566.24 112.07V163.42H576.24V112.07H566.24ZM570.601 158.461L505.991 166.781L507.269 176.699L571.879 168.379L570.601 158.461ZM511.117 169.533L491.487 129.623L482.513 134.037L502.143 173.947L511.117 169.533ZM491.908 132.787L499.058 96.1271L489.242 94.2129L482.092 130.873L491.908 132.787ZM497.089 99.2153L524.649 79.1953L518.771 71.1047L491.211 91.1247L497.089 99.2153ZM521.365 80.1381L555.165 82.4781L555.855 72.5019L522.055 70.1619L521.365 80.1381ZM551.482 80.4519L564.482 98.1319L572.538 92.208L559.538 74.528L551.482 80.4519ZM632.079 75.67L636.624 73.5856L635.135 70.3395L631.581 70.6948L632.079 75.67ZM673.159 165.24L673.944 170.178L680.45 169.144L677.704 163.156L673.159 165.24ZM633.899 171.48L628.944 172.152L629.632 177.221L634.684 176.418L633.899 171.48ZM630.779 148.47L635.734 147.798L635.161 143.577L630.902 143.472L630.779 148.47ZM599.189 147.69L599.312 142.692L595.464 142.596L594.388 146.293L599.189 147.69ZM592.039 172.26L591.159 177.182L595.584 177.973L596.84 173.657L592.039 172.26ZM554.209 165.5L549.911 162.944L546.22 169.152L553.329 170.422L554.209 165.5ZM606.079 78.27L605.581 73.2948L603.071 73.5459L601.781 75.7145L606.079 78.27ZM612.709 109.73L612.904 104.734L609.384 104.597L608.07 107.865L612.709 109.73ZM607.379 122.99L602.74 121.125L600.057 127.8L607.248 127.988L607.379 122.99ZM627.269 123.51L627.138 128.508L634.312 128.696L632.003 121.901L627.269 123.51ZM622.719 110.12L627.453 108.511L626.347 105.258L622.914 105.124L622.719 110.12ZM627.534 77.7544L668.614 167.324L677.704 163.156L636.624 73.5856L627.534 77.7544ZM672.374 160.302L633.114 166.542L634.684 176.418L673.944 170.178L672.374 160.302ZM638.854 170.808L635.734 147.798L625.824 149.142L628.944 172.152L638.854 170.808ZM630.902 143.472L599.312 142.692L599.066 152.688L630.656 153.468L630.902 143.472ZM594.388 146.293L587.238 170.863L596.84 173.657L603.99 149.087L594.388 146.293ZM592.919 167.338L555.089 160.578L553.329 170.422L591.159 177.182L592.919 167.338ZM558.507 168.056L610.377 80.8255L601.781 75.7145L549.911 162.944L558.507 168.056ZM606.577 83.2452L632.577 80.6452L631.581 70.6948L605.581 73.2948L606.577 83.2452ZM608.07 107.865L602.74 121.125L612.018 124.855L617.348 111.595L608.07 107.865ZM607.248 127.988L627.138 128.508L627.4 118.512L607.51 117.992L607.248 127.988ZM632.003 121.901L627.453 108.511L617.985 111.729L622.535 125.119L632.003 121.901ZM622.914 105.124L612.904 104.734L612.514 114.726L622.524 115.116L622.914 105.124ZM667.146 162.12L662.747 159.744L659.495 165.765L666.22 167.033L667.146 162.12ZM713.556 76.19V71.19H710.574L709.157 73.8139L713.556 76.19ZM740.986 76.19L745.706 74.5382L744.534 71.19H740.986V76.19ZM750.086 102.19L745.367 103.842L748.833 113.745L754.342 104.815L750.086 102.19ZM766.206 76.06L766.1 71.0611L763.38 71.1193L761.951 73.4348L766.206 76.06ZM790.516 75.54L795.325 74.169L794.267 70.4586L790.41 70.5411L790.516 75.54ZM817.166 169.01L817.577 173.993L823.644 173.493L821.975 167.639L817.166 169.01ZM782.456 171.87L777.642 173.219L778.755 177.192L782.867 176.853L782.456 171.87ZM775.826 148.21L780.641 146.861L780.6 146.715L780.551 146.573L775.826 148.21ZM767.896 125.33L772.621 123.693L770.166 116.61L764.57 121.597L767.896 125.33ZM743.976 146.65L739.984 149.66L743.252 153.994L747.303 150.383L743.976 146.65ZM725.646 122.34L729.639 119.33L724.651 112.715L721.123 120.21L725.646 122.34ZM703.676 169.01L702.75 173.923L706.552 174.641L708.2 171.14L703.676 169.01ZM671.546 164.496L717.956 78.566L709.157 73.8139L662.747 159.744L671.546 164.496ZM713.556 81.19H740.986V71.19H713.556V81.19ZM736.267 77.8417L745.367 103.842L754.806 100.538L745.706 74.5382L736.267 77.8417ZM754.342 104.815L770.462 78.6852L761.951 73.4348L745.831 99.5648L754.342 104.815ZM766.313 81.0589L790.623 80.5389L790.41 70.5411L766.1 71.0611L766.313 81.0589ZM785.708 76.9109L812.358 170.381L821.975 167.639L795.325 74.169L785.708 76.9109ZM816.756 164.027L782.046 166.887L782.867 176.853L817.577 173.993L816.756 164.027ZM787.271 170.521L780.641 146.861L771.012 149.559L777.642 173.219L787.271 170.521ZM780.551 146.573L772.621 123.693L763.172 126.967L771.102 149.847L780.551 146.573ZM764.57 121.597L740.65 142.917L747.303 150.383L771.223 129.063L764.57 121.597ZM747.969 143.64L729.639 119.33L721.654 125.35L739.984 149.66L747.969 143.64ZM721.123 120.21L699.153 166.88L708.2 171.14L730.17 124.47L721.123 120.21ZM704.603 164.097L668.073 157.207L666.22 167.033L702.75 173.923L704.603 164.097ZM824.479 75.15V70.15H820.398L819.58 74.148L824.479 75.15ZM888.179 75.15L893.084 76.1215L894.266 70.15H888.179V75.15ZM882.849 102.06L883.608 107.002L887.073 106.47L887.754 103.031L882.849 102.06ZM851.519 106.87L850.76 101.928L846.765 102.541L846.528 106.576L851.519 106.87ZM851.129 113.5L846.138 113.206L845.849 118.117L850.754 118.486L851.129 113.5ZM878.819 115.58L883.809 115.894L884.119 110.964L879.194 110.594L878.819 115.58ZM877.519 136.25L877.965 141.23L882.24 140.848L882.509 136.564L877.519 136.25ZM852.819 138.46L852.373 133.48L846.184 134.034L848.05 139.961L852.819 138.46ZM855.029 145.48L850.26 146.981L851.351 150.448L854.986 150.48L855.029 145.48ZM885.059 145.74L889.657 143.776L888.372 140.769L885.102 140.74L885.059 145.74ZM896.109 171.61V176.61H903.682L900.707 169.646L896.109 171.61ZM824.479 171.61L819.511 172.171L820.012 176.61H824.479V171.61ZM817.459 109.47L812.56 108.468L812.402 109.244L812.491 110.031L817.459 109.47ZM824.479 80.15H888.179V70.15H824.479V80.15ZM883.274 74.1785L877.944 101.089L887.754 103.031L893.084 76.1215L883.274 74.1785ZM882.09 97.1179L850.76 101.928L852.278 111.812L883.608 107.002L882.09 97.1179ZM846.528 106.576L846.138 113.206L856.12 113.794L856.51 107.164L846.528 106.576ZM850.754 118.486L878.444 120.566L879.194 110.594L851.504 108.514L850.754 118.486ZM873.829 115.266L872.529 135.936L882.509 136.564L883.809 115.894L873.829 115.266ZM877.073 131.27L852.373 133.48L853.265 143.44L877.965 141.23L877.073 131.27ZM848.05 139.961L850.26 146.981L859.798 143.979L857.588 136.959L848.05 139.961ZM854.986 150.48L885.016 150.74L885.102 140.74L855.072 140.48L854.986 150.48ZM880.461 147.704L891.511 173.574L900.707 169.646L889.657 143.776L880.461 147.704ZM896.109 166.61H824.479V176.61H896.109V166.61ZM829.447 171.049L822.427 108.909L812.491 110.031L819.511 172.171L829.447 171.049ZM822.358 110.472L829.378 76.152L819.58 74.148L812.56 108.468L822.358 110.472ZM939.82 75.28L942.989 71.4119L941.335 70.0575L939.214 70.317L939.82 75.28ZM967.12 97.64L972.092 97.1069L971.874 95.0699L970.289 93.7719L967.12 97.64ZM972.71 149.77L975.873 153.643L977.971 151.93L977.682 149.237L972.71 149.77ZM945.8 171.74V176.74H947.582L948.963 175.613L945.8 171.74ZM891.98 171.74H886.98V176.74H891.98V171.74ZM891.98 81.13L891.374 76.167L886.98 76.7042V81.13H891.98ZM921.75 109.99L923.837 105.446L916.75 102.192V109.99H921.75ZM921.75 138.33H916.75V145.365L923.394 143.052L921.75 138.33ZM939.3 132.22L940.944 136.942L944.3 135.774V132.22H939.3ZM939.3 118.05H944.3V114.844L941.387 113.506L939.3 118.05ZM936.652 79.1481L963.952 101.508L970.289 93.7719L942.989 71.4119L936.652 79.1481ZM962.149 98.1731L967.739 150.303L977.682 149.237L972.092 97.1069L962.149 98.1731ZM969.548 145.897L942.638 167.867L948.963 175.613L975.873 153.643L969.548 145.897ZM945.8 166.74H891.98V176.74H945.8V166.74ZM896.98 171.74V81.13H886.98V171.74H896.98ZM892.587 86.093L940.427 80.243L939.214 70.317L891.374 76.167L892.587 86.093ZM916.75 109.99V138.33H926.75V109.99H916.75ZM923.394 143.052L940.944 136.942L937.657 127.498L920.107 133.608L923.394 143.052ZM944.3 132.22V118.05H934.3V132.22H944.3ZM941.387 113.506L923.837 105.446L919.664 114.534L937.214 122.594L941.387 113.506ZM981.52 75.15V70.15H977.439L976.621 74.148L981.52 75.15ZM1045.22 75.15L1050.12 76.1215L1051.31 70.15H1045.22V75.15ZM1039.89 102.06L1040.65 107.002L1044.11 106.47L1044.79 103.031L1039.89 102.06ZM1008.56 106.87L1007.8 101.928L1003.81 102.541L1003.57 106.576L1008.56 106.87ZM1008.17 113.5L1003.18 113.206L1002.89 118.117L1007.8 118.486L1008.17 113.5ZM1035.86 115.58L1040.85 115.894L1041.16 110.964L1036.23 110.594L1035.86 115.58ZM1034.56 136.25L1035.01 141.23L1039.28 140.848L1039.55 136.564L1034.56 136.25ZM1009.86 138.46L1009.41 133.48L1003.22 134.034L1005.09 139.961L1009.86 138.46ZM1012.07 145.48L1007.3 146.981L1008.39 150.448L1012.03 150.48L1012.07 145.48ZM1042.1 145.74L1046.7 143.776L1045.41 140.769L1042.14 140.74L1042.1 145.74ZM1053.15 171.61V176.61H1060.72L1057.75 169.646L1053.15 171.61ZM981.52 171.61L976.552 172.171L977.053 176.61H981.52V171.61ZM974.5 109.47L969.601 108.468L969.443 109.244L969.532 110.031L974.5 109.47ZM981.52 80.15H1045.22V70.15H981.52V80.15ZM1040.32 74.1785L1034.99 101.089L1044.79 103.031L1050.12 76.1215L1040.32 74.1785ZM1039.13 97.1179L1007.8 101.928L1009.32 111.812L1040.65 107.002L1039.13 97.1179ZM1003.57 106.576L1003.18 113.206L1013.16 113.794L1013.55 107.164L1003.57 106.576ZM1007.8 118.486L1035.49 120.566L1036.23 110.594L1008.54 108.514L1007.8 118.486ZM1030.87 115.266L1029.57 135.936L1039.55 136.564L1040.85 115.894L1030.87 115.266ZM1034.11 131.27L1009.41 133.48L1010.31 143.44L1035.01 141.23L1034.11 131.27ZM1005.09 139.961L1007.3 146.981L1016.84 143.979L1014.63 136.959L1005.09 139.961ZM1012.03 150.48L1042.06 150.74L1042.14 140.74L1012.11 140.48L1012.03 150.48ZM1037.5 147.704L1048.55 173.574L1057.75 169.646L1046.7 143.776L1037.5 147.704ZM1053.15 166.61H981.52V176.61H1053.15V166.61ZM986.488 171.049L979.468 108.909L969.532 110.031L976.552 172.171L986.488 171.049ZM979.399 110.472L986.419 76.152L976.621 74.148L969.601 108.468L979.399 110.472ZM1075.02 75.93L1078.59 72.4281L1075.01 68.7766L1071.44 72.4422L1075.02 75.93ZM1095.43 96.73L1091.86 100.232L1096.14 104.591L1099.57 99.5369L1095.43 96.73ZM1110.51 74.5L1113.97 70.8893L1109.7 66.7952L1106.37 71.6931L1110.51 74.5ZM1135.21 98.16L1139.03 101.391L1142.07 97.802L1138.67 94.5493L1135.21 98.16ZM1117.27 119.35L1113.46 116.119L1110.1 120.079L1114.18 123.283L1117.27 119.35ZM1146.91 142.62L1150.69 145.897L1154.13 141.93L1150 138.687L1146.91 142.62ZM1122.21 171.09L1118.24 174.131L1121.97 178.997L1125.99 174.367L1122.21 171.09ZM1100.89 143.27L1104.86 140.229L1101.38 135.69L1097.35 139.743L1100.89 143.27ZM1073.85 170.44L1070.33 173.994L1073.88 177.501L1077.4 173.967L1073.85 170.44ZM1049.02 145.87L1045.68 142.154L1041.74 145.699L1045.5 149.424L1049.02 145.87ZM1077.75 120L1081.1 123.716L1084.8 120.383L1081.48 116.668L1077.75 120ZM1055.91 95.56L1052.33 92.0722L1049.08 95.414L1052.18 98.8917L1055.91 95.56ZM1071.45 79.4319L1091.86 100.232L1099 93.2281L1078.59 72.4281L1071.45 79.4319ZM1099.57 99.5369L1114.65 77.3069L1106.37 71.6931L1091.29 93.9231L1099.57 99.5369ZM1107.05 78.1107L1131.75 101.771L1138.67 94.5493L1113.97 70.8893L1107.05 78.1107ZM1131.4 94.9292L1113.46 116.119L1121.09 122.581L1139.03 101.391L1131.4 94.9292ZM1114.18 123.283L1143.82 146.553L1150 138.687L1120.36 115.417L1114.18 123.283ZM1143.13 139.343L1118.43 167.813L1125.99 174.367L1150.69 145.897L1143.13 139.343ZM1126.18 168.049L1104.86 140.229L1096.92 146.311L1118.24 174.131L1126.18 168.049ZM1097.35 139.743L1070.31 166.913L1077.4 173.967L1104.44 146.797L1097.35 139.743ZM1077.37 166.886L1052.54 142.316L1045.5 149.424L1070.33 173.994L1077.37 166.886ZM1052.37 149.586L1081.1 123.716L1074.41 116.284L1045.68 142.154L1052.37 149.586ZM1081.48 116.668L1059.64 92.2283L1052.18 98.8917L1074.02 123.332L1081.48 116.668ZM1059.49 99.0478L1078.6 79.4178L1071.44 72.4422L1052.33 92.0722L1059.49 99.0478Z" fill="white"/>
<defs>
<radialGradient id="paint0_radial_6_3" cx="0" cy="0" r="1" gradientUnits="userSpaceOnUse" gradientTransform="translate(230 126) rotate(90) scale(75 100)">
<stop stop-color="white"/>
<stop offset="1" stop-color="#CAF5FF"/>
</radialGradient>
<radialGradient id="paint1_radial_6_3" cx="0" cy="0" r="1" gradientUnits="userSpaceOnUse" gradientTransform="translate(398.5 108) rotate(52.5946) scale(21.4009 14.7863)">
<stop stop-color="white"/>
<stop offset="1" stop-color="#47DD71"/>
</radialGradient>
<radialGradient id="paint2_radial_6_3" cx="0" cy="0" r="1" gradientUnits="userSpaceOnUse" gradientTransform="translate(368.487 135) rotate(52.5946) scale(21.4009 14.7863)">
<stop stop-color="white"/>
<stop offset="1" stop-color="#47DD71"/>
</radialGradient>
<radialGradient id="paint3_radial_6_3" cx="0" cy="0" r="1" gradientUnits="userSpaceOnUse" gradientTransform="translate(230 154) rotate(-90) scale(159 681.985)">
<stop stop-color="#FCFCFC"/>
<stop offset="0.605582" stop-color="#F25151"/>
<stop offset="1" stop-color="#ED3030"/>
</radialGradient>
<radialGradient id="paint4_radial_6_3" cx="0" cy="0" r="1" gradientUnits="userSpaceOnUse" gradientTransform="translate(230.237 102) rotate(90) scale(159 682.765)">
<stop stop-color="#FCFCFC"/>
<stop offset="0.605582" stop-color="#F25151"/>
<stop offset="1" stop-color="#ED3030"/>
</radialGradient>
<radialGradient id="paint5_radial_6_3" cx="0" cy="0" r="1" gradientUnits="userSpaceOnUse" gradientTransform="translate(45 121) rotate(55.3048) scale(23.7171 18.2439)">
<stop offset="0.0711221" stop-color="white"/>
<stop offset="1" stop-color="#17BAFF"/>
</radialGradient>
</defs>
</svg>
